<svg width="24" height="24" fill="none" xmlns="http://www.w3.org/2000/svg"><path fill="#000" filter="url(#filter0_d_0_1)" d="M0 0h24v24H0z"/><g id="Dashboard" clip-path="url(#clip0_0_1)"><path transform="translate(-39 -459)" fill="#FAFBFF" d="M0 0h1440v1198H0z"/><g id="Side Menu"><g id="Rectangle 14" filter="url(#filter0_d_0_1)"><path fill="#fff" d="M-39-459h306V739H-39z"/></g><g id="List Menu"><g id="message-question 1" fill="#9197B3"><path id="Vector" d="M8 22.32c-.28 0-.57-.07-.83-.21-.57-.3-.92-.9-.92-1.54v-1.42c-3.02-.31-5-2.53-5-5.71v-6C1.25 4 3.56 1.69 7 1.69h10c3.44 0 5.75 2.31 5.75 5.75v6c0 3.44-2.31 5.75-5.75 5.75h-3.77l-4.26 2.84c-.29.19-.63.29-.97.29zM7 3.18c-2.58 0-4.25 1.67-4.25 4.25v6c0 2.58 1.67 4.25 4.25 4.25.41 0 .75.34.75.75v2.13c0 .13.08.19.13.22s.15.06.26-.01l4.45-2.96c.12-.08.27-.13.42-.13h4c2.58 0 4.25-1.67 4.25-4.25v-6c0-2.58-1.67-4.25-4.25-4.25H7z"/><path id="Vector_2" d="M12 12.11c-.41 0-.75-.34-.75-.75v-.21c0-1.16.85-1.73 1.17-1.95.37-.25.49-.42.49-.68 0-.5-.41-.91-.91-.91s-.91.41-.91.91c0 .41-.34.75-.75.75s-.75-.34-.75-.75c0-1.33 1.08-2.41 2.41-2.41s2.41 1.08 2.41 2.41c0 1.14-.84 1.71-1.15 1.92-.39.26-.51.43-.51.71v.21c0 .42-.34.75-.75.75z"/><path id="Vector_3" d="M12 14.6a.749.749 0 11-.002-1.498A.749.749 0 0112 14.6z"/></g></g></g></g><defs><clipPath id="clip0_0_1"><path fill="#fff" transform="translate(-39 -459)" d="M0 0h1440v1198H0z"/></clipPath><filter id="filter0_d_0_1" x="-99" y="-509" width="426" height="1318" filterUnits="userSpaceOnUse" color-interpolation-filters="sRGB"><feFlood flood-opacity="0" result="BackgroundImageFix"/><feColorMatrix in="SourceAlpha" values="0 0 0 0 0 0 0 0 0 0 0 0 0 0 0 0 0 0 127 0" result="hardAlpha"/><feOffset dy="10"/><feGaussianBlur stdDeviation="30"/><feComposite in2="hardAlpha" operator="out"/><feColorMatrix values="0 0 0 0 0.885625 0 0 0 0 0.92625 0 0 0 0 0.975 0 0 0 0.5 0"/><feBlend in2="BackgroundImageFix" result="effect1_dropShadow_0_1"/><feBlend in="SourceGraphic" in2="effect1_dropShadow_0_1" result="shape"/></filter></defs></svg>